<?xml version="1.0" encoding="UTF-8"?>
<svg version="1.1" xmlns="http://www.w3.org/2000/svg" width="302" height="174">
<path d="M0 0 C1.00496852 3.01490557 1.10335303 5.04181692 1.0625 8.1875 C1.05347656 9.08855469 1.04445312 9.98960938 1.03515625 10.91796875 C1.02355469 11.60503906 1.01195312 12.29210938 1 13 C-1.5 13.9375 -1.5 13.9375 -5 14 C-7.96996983 11.96679484 -10.48166917 9.56307274 -13 7 C-12.0162413 1.32018561 -12.0162413 1.32018561 -9 -1 C-5.19881294 -2.26706235 -3.6149628 -1.57172296 0 0 Z " fill="#2d6a4f" transform="translate(166,35)"/>
<path d="M0 0 C3.1875 -0.25 3.1875 -0.25 6 0 C6 0.66 6 1.32 6 2 C4.824375 2.185625 4.824375 2.185625 3.625 2.375 C0.82866088 3.70324001 0.82866088 3.70324001 0.36328125 6.1484375 C0.07433663 7.91391567 -0.20530646 9.68093644 -0.4765625 11.44921875 C-1.23206305 15.13087441 -2.58312712 17.14369569 -5 20 C-5.99 20.33 -6.98 20.66 -8 21 C-7.94199219 20.40832031 -7.88398438 19.81664063 -7.82421875 19.20703125 C-7.51237703 13.77334441 -7.51237703 13.77334441 -10.1875 9.125 C-12.71918216 7.21217348 -15.21245524 5.51323858 -18 4 C-17.67 3.01 -17.34 2.02 -17 1 C-13.625 1.3125 -13.625 1.3125 -10 2 C-9.01 3.485 -9.01 3.485 -8 5 C-5.59855733 4.8042208 -5.59855733 4.8042208 -3 4 C-2.525625 3.319375 -2.05125 2.63875 -1.5625 1.9375 C-1.046875 1.298125 -0.53125 0.65875 0 0 Z " fill="#2d6a4f" transform="translate(139,35)"/>
<path d="M0 0 C4.97923913 1.27375885 7.74514561 3.0011789 11 7 C11.8125 9.8125 11.8125 9.8125 12 12 C10.65686601 11.35330586 9.32608822 10.68096422 8 10 C6.7315625 9.3503125 6.7315625 9.3503125 5.4375 8.6875 C2.64839622 6.756582 1.47568856 5.02904493 0 2 C0 1.34 0 0.68 0 0 Z " fill="#2d6a4f" transform="translate(205,36)"/>
<path d="M0 0 C1.0209375 1.051875 1.0209375 1.051875 2.0625 2.125 C3.03673336 3.08834807 4.01633007 4.04628956 5 5 C5.50789063 5.49242187 6.01578125 5.98484375 6.5390625 6.4921875 C12.62393449 12.05797088 19.64748385 15.14843149 27.3125 18 C32.78153624 20.1206467 35.75955783 23.13933674 39 28 C39.7500493 33.10033527 39.9391255 37.52870338 37.125 41.9375 C34.33007345 43.78215152 31.90171737 44.92282714 28.8046875 46.12890625 C27.90476074 46.48154541 27.00483398 46.83418457 26.07763672 47.19750977 C25.3920166 47.46233154 24.70639648 47.72715332 24 48 C23.92550147 53.1411629 23.87123407 58.28200729 23.83520508 63.42358398 C23.82017571 65.1703845 23.79974646 66.91714765 23.77368164 68.66381836 C23.7370392 71.18352515 23.72021508 73.70273039 23.70703125 76.22265625 C23.69154739 76.99585709 23.67606354 77.76905792 23.66011047 78.56568909 C23.65851292 83.78461622 24.57563222 87.35793064 27 92 C28.85544166 94.21760918 28.85544166 94.21760918 31.625 94.5625 C37.64857143 93.55857143 41.25327132 88.74672868 45.4375 84.5625 C47.74679246 82.25320754 50.09205291 80.01813193 52.5 77.8125 C53.2321875 77.13832031 53.964375 76.46414062 54.71875 75.76953125 C59.24596863 72.25783597 63.31946968 71.40204944 69 72 C73.88135555 74.44067777 76.92751391 78.01310416 80.2890625 82.1953125 C82.62720644 84.66157392 84.57906789 85.91706622 88.0078125 86.1171875 C94.80791159 85.33931639 101.62391297 83.56582615 107.1484375 79.3671875 C109 78 109 78 111.3125 78 C113.83894818 78.94007374 115.27135423 79.88108692 117.375 81.5 C121.01206327 84.15575712 123.35096775 85.22864093 128 85 C134.98430621 82.2923235 134.98430621 82.2923235 141 78 C143.5625 77.5625 143.5625 77.5625 147 78 C148.9296875 79.375 148.9296875 79.375 150.9375 81.0625 C153.96179179 83.50386532 154.62691131 83.98735293 158.6875 84.125 C164.02939428 82.31077175 166.67890771 79.94866151 169.25 75 C171.30834138 70.68085743 172.12639025 66.92795625 172.1328125 62.140625 C172.13474609 61.19840088 172.13667969 60.25617676 172.13867188 59.28540039 C172.1319043 57.7828772 172.1319043 57.7828772 172.125 56.25 C172.12306641 55.21157959 172.12113281 54.17315918 172.11914062 53.10327148 C172.08735287 47.39957633 171.91953401 41.75018257 171.5 36.0625 C170.989119 29.09992178 170.8873928 22.16826031 170.875 15.1875 C170.86823242 13.60110718 170.86823242 13.60110718 170.86132812 11.98266602 C170.86326172 10.99194092 170.86519531 10.00121582 170.8671875 8.98046875 C170.86831543 8.09254639 170.86944336 7.20462402 170.87060547 6.28979492 C171 4 171 4 172 1 C175 0 175 0 176.98046875 0.59765625 C179.69096316 2.4797984 180.76153374 4.53954071 182.3125 7.4375 C182.84488281 8.40558594 183.37726563 9.37367187 183.92578125 10.37109375 C185 13 185 13 184 16 C183.32874084 16.46086502 182.65748169 16.92173004 181.96588135 17.39656067 C179.80859142 18.81901221 179.80859142 18.81901221 179.51898193 21.14506531 C179.52786438 21.97335342 179.53674683 22.80164154 179.54589844 23.6550293 C179.54620056 24.59577805 179.54650269 25.53652679 179.54681396 26.50578308 C179.56745911 27.51836685 179.58810425 28.53095062 179.609375 29.57421875 C179.61786469 31.13267265 179.61786469 31.13267265 179.62652588 32.72261047 C179.64893673 36.04470681 179.6991431 39.36572904 179.75 42.6875 C179.77005885 44.93813548 179.78831069 47.18878784 179.8046875 49.43945312 C179.8488168 54.9600026 179.91577579 60.47992457 180 66 C180.86085205 65.78778809 181.7217041 65.57557617 182.60864258 65.35693359 C195.23643768 62.32668881 207.49705125 60.79411301 219.0625 67.875 C221.37575896 70.41212273 222.08202291 71.55503794 222 75 C218.14981079 83.4337478 209.00398701 87.95627218 200.71484375 91.17578125 C192.8394969 93.56671389 185.48346149 94.38803588 177.25 94.375 C175.66155273 94.37258301 175.66155273 94.37258301 174.04101562 94.37011719 C164.15948801 94.21543397 156.3272927 92.37184917 147.5625 87.6875 C143.50007201 85.763192 142.18988483 85.51608246 138 87 C136.69435086 87.81125061 135.40360791 88.64676554 134.125 89.5 C129.91082589 92.26128742 127.0649691 93 122 93 C118.27788741 91.95036425 115.21494696 90.14329797 112 88 C108.47137359 88.24058816 105.91689601 89.03763199 102.6875 90.5 C95.4143274 93.45857869 88.4030339 93.74508472 81 91 C76.89120536 88.87712277 72.95567724 86.49787097 69.28125 83.68359375 C66.58674698 81.62688533 65.05148325 81.00286018 61.625 80.8125 C53.32206733 83.53242622 47.99458715 91.08832066 42.4921875 97.546875 C39.24549045 100.74268338 36.18211059 102.77402091 31.5859375 103.25 C27.83491609 102.82585624 25.60254712 102.4915516 22.625 100.0625 C17.92900267 91.21235119 16.83946297 81.63536677 16.8671875 71.73046875 C16.86623077 70.96825516 16.86527405 70.20604156 16.86428833 69.42073059 C16.86361227 67.82321082 16.8654262 66.22568821 16.86962891 64.62817383 C16.8750227 62.17718426 16.86964554 59.72637484 16.86328125 57.27539062 C16.86394141 55.7187496 16.86522127 54.16210868 16.8671875 52.60546875 C16.86516327 51.87216843 16.86313904 51.1388681 16.86105347 50.38334656 C16.88501321 45.22997358 16.88501321 45.22997358 18 43 C19.77734375 42.21875 19.77734375 42.21875 21.9375 41.5 C24.70455204 40.57597536 25.89137369 40.10862631 28 38 C28.75182653 34.6709041 28.75182653 34.6709041 28 31 C23.4400654 25.7727579 17.46804491 22.93971115 11.33178711 19.89086914 C7.61058731 18.01430149 4.75614415 16.13991105 2 13 C-0.88958069 14.37352266 -3.48857623 15.94049882 -6.125 17.75 C-9.44837677 20.00769893 -12.82492262 22.06886271 -16.3125 24.0625 C-21.492914 27.17215954 -21.492914 27.17215954 -25 32 C-25.57354142 35.57216696 -25.57354142 35.57216696 -24 39 C-21.76493913 40.62201561 -19.53511298 41.79622136 -17.03125 42.95703125 C-15 44 -15 44 -14 46 C-13.85120319 48.30921203 -13.77865416 50.6236764 -13.75 52.9375 C-13.72421875 54.18402344 -13.6984375 55.43054688 -13.671875 56.71484375 C-14 60 -14 60 -15.515625 61.94140625 C-16.00546875 62.29074219 -16.4953125 62.64007813 -17 63 C-18.485 62.505 -18.485 62.505 -20 62 C-19.95359375 61.33613281 -19.9071875 60.67226562 -19.859375 59.98828125 C-19.63059657 54.40473646 -19.63059657 54.40473646 -21.375 49.1875 C-24.55978074 46.53351605 -27.87021282 44.95565187 -31.66015625 43.30859375 C-34.32162222 41.82012781 -35.50329704 40.64801293 -37 38 C-37.43359375 35.59765625 -37.43359375 35.59765625 -37.4375 33.0625 C-37.45683594 32.22847656 -37.47617187 31.39445312 -37.49609375 30.53515625 C-36.82332028 27.09712489 -35.36967647 25.56993775 -33 23 C-30.14672852 21.24243164 -30.14672852 21.24243164 -26.87890625 19.66015625 C-25.68422761 19.06578974 -24.4895667 18.4713876 -23.29492188 17.87695312 C-21.42952997 16.96717926 -19.5618985 16.06220943 -17.69311523 15.15942383 C-8.05113193 10.67657293 -8.05113193 10.67657293 -1 3 C-0.67 2.01 -0.34 1.02 0 0 Z M172.0390625 80.16796875 C170.60498604 82.06997157 169.26113507 83.98013326 168 86 C168.33 86.66 168.66 87.32 169 88 C173.09126208 87.66592517 177.18016629 87.3110032 181.26806641 86.93798828 C182.65430362 86.81430315 184.04103232 86.69598882 185.42822266 86.58349609 C200.2152342 85.62968501 200.2152342 85.62968501 212.125 77.75 C212.74375 76.8425 213.3625 75.935 214 75 C210.57548988 71.19498876 207.59382617 69.30679664 202.45703125 68.69921875 C191.27697695 68.64967641 179.81295441 71.5733273 172.0390625 80.16796875 Z " fill="#2d6a4f" transform="translate(61,35)"/>
<path d="M0 0 C3.53586014 3.17320782 5.58578031 5.16743695 6 10 C4.68 10.33 3.36 10.66 2 11 C-0.31309135 8.49415104 -0.97826344 7.27714111 -1.25 3.8125 C-1 1 -1 1 0 0 Z " fill="#2d6a4f" transform="translate(183,46)"/>
<path d="M0 0 C-1.21918383 3.6575515 -2.84071298 4.42328869 -6.14453125 6.21484375 C-8.51473693 7.217815 -10.45898646 7.30800164 -13 7 C-9.38220061 2.96476222 -5.58037921 0 0 0 Z " fill="#2d6a4f" transform="translate(145,61)"/>
<path d="M0 0 C5.75 1.75 5.75 1.75 8 4 C8.25 6.5 8.25 6.5 8 9 C7.34 9.66 6.68 10.32 6 11 C3.5 10.9375 3.5 10.9375 1 10 C-0.76241771 7.11604375 -1.07239607 5.54297056 -0.625 2.1875 C-0.41875 1.465625 -0.2125 0.74375 0 0 Z " fill="#2d6a4f" transform="translate(217,66)"/>
<path d="M0 0 C-6.09300258 5.07750215 -9.15925337 6.26135822 -17 6 C-11.90781903 1.72256799 -6.68152662 -0.48889219 0 0 Z " fill="#2d6a4f" transform="translate(274,66)"/>
<path d="M0 0 C-5.35022874 4.72079006 -9.87265814 6.33939723 -17 6 C-12.52065561 1.04914568 -6.56253064 -0.4921898 0 0 Z " fill="#2d6a4f" transform="translate(187,73)"/>
<path d="M0 0 C1.26650391 0.07734375 1.26650391 0.07734375 2.55859375 0.15625 C3.43128906 0.22070312 4.30398437 0.28515625 5.203125 0.3515625 C6.09128906 0.40828125 6.97945312 0.465 7.89453125 0.5234375 C10.08158832 0.66453796 12.2674319 0.8159058 14.453125 0.9765625 C12.83939441 5.83405459 11.00435308 7.45510324 6.6953125 9.97265625 C3.25837937 11.51149216 0.19921664 11.77587902 -3.546875 11.9765625 C-2.25722324 10.60093396 -0.91998207 9.26889857 0.453125 7.9765625 C1.113125 7.9765625 1.773125 7.9765625 2.453125 7.9765625 C2.453125 7.3165625 2.453125 6.6565625 2.453125 5.9765625 C-0.846875 5.9765625 -4.146875 5.9765625 -7.546875 5.9765625 C-7.876875 4.6565625 -8.206875 3.3365625 -8.546875 1.9765625 C-5.50566808 0.20151544 -3.50012846 -0.23649517 0 0 Z " fill="#2d6a4f" transform="translate(197.546875,83.0234375)"/>
<path d="M0 0 C0.67675781 0.00515625 1.35351562 0.0103125 2.05078125 0.015625 C5.11957737 0.06404782 7.57083192 0.27361064 10.5 1.25 C8.75 5.125 8.75 5.125 6.5 6.25 C0.05611483 6.86258141 -4.76905949 6.24005592 -10.5 3.25 C-7.80287204 -0.63222963 -4.29782819 -0.13098143 0 0 Z " fill="#2d6a4f" transform="translate(138.5,83.75)"/>
<path d="M0 0 C3.4375 0.1875 3.4375 0.1875 7 1 C8.4375 3.0625 8.4375 3.0625 9 5 C7.875 6.5625 7.875 6.5625 6 8 C0.56521739 7.56521739 0.56521739 7.56521739 -1 6 C-1.125 3.5 -1.125 3.5 -1 1 C-0.67 0.67 -0.34 0.34 0 0 Z " fill="#2d6a4f" transform="translate(168,134)"/>
<path d="M0 0 C2.84326464 -0.23053497 4.46145349 -0.35903101 6.875 1.25 C8 3 8 3 7.75 5.125 C7 7 7 7 6 8 C3.625 8.25 3.625 8.25 1 8 C-0.8125 6.5 -0.8125 6.5 -2 5 C-1.34 3.35 -0.68 1.7 0 0 Z " fill="#2d6a4f" transform="translate(195,134)"/>
<path d="M0 0 C2.5625 0.3125 2.5625 0.3125 4.4375 1.5625 C5.5625 3.3125 5.5625 3.3125 5.3125 5.4375 C4.5625 7.3125 4.5625 7.3125 3.5625 8.3125 C1.22305264 8.02519945 -1.1114143 7.69313221 -3.4375 7.3125 C-4.0625 4.9375 -4.0625 4.9375 -4.4375 2.3125 C-2.4375 0.3125 -2.4375 0.3125 0 0 Z " fill="#2d6a4f" transform="translate(212.4375,133.6875)"/>
</svg>
